<?xml version="1.0" standalone="no"?><!DOCTYPE svg PUBLIC "-//W3C//DTD SVG 1.1//EN" "http://www.w3.org/Graphics/SVG/1.1/DTD/svg11.dtd"><svg t="1620293390987" class="icon" viewBox="0 0 1024 1024" version="1.1" xmlns="http://www.w3.org/2000/svg" p-id="1905" xmlns:xlink="http://www.w3.org/1999/xlink" width="200" height="200"><defs><style type="text/css"></style></defs><path d="M892.586667 388.693333A213.333333 213.333333 0 0 0 682.666667 213.333333a202.666667 202.666667 0 0 0-76.373334 14.506667A298.666667 298.666667 0 0 0 85.333333 407.04 170.666667 170.666667 0 0 0 170.666667 725.333333h170.666666a42.666667 42.666667 0 0 0 0-85.333333H170.666667a85.333333 85.333333 0 0 1-28.16-165.546667 42.666667 42.666667 0 0 0 28.16-40.106666A49.066667 49.066667 0 0 0 170.666667 426.666667a213.333333 213.333333 0 0 1 388.693333-121.173334 42.666667 42.666667 0 0 0 57.173333 11.946667A128 128 0 0 1 810.666667 426.666667a42.666667 42.666667 0 0 0 42.666666 42.666666 85.333333 85.333333 0 0 1 0 170.666667h-170.666666a42.666667 42.666667 0 0 0 0 85.333333h170.666666a170.666667 170.666667 0 0 0 39.253334-336.64z" p-id="1906"></path><path d="M567.04 737.706667l-12.373333 12.8V512a42.666667 42.666667 0 0 0-85.333334 0v238.506667l-12.373333-12.8a42.666667 42.666667 0 0 0-60.586667 60.586666l85.333334 85.333334a42.666667 42.666667 0 0 0 14.08 8.96 40.106667 40.106667 0 0 0 32.426666 0 42.666667 42.666667 0 0 0 14.08-8.96l85.333334-85.333334a42.666667 42.666667 0 0 0-60.586667-60.586666z" p-id="1907"></path></svg>