<?xml version="1.0" standalone="no"?><!DOCTYPE svg PUBLIC "-//W3C//DTD SVG 1.1//EN" "http://www.w3.org/Graphics/SVG/1.1/DTD/svg11.dtd"><svg t="1620476601046" class="icon" viewBox="0 0 1024 1024" version="1.1" xmlns="http://www.w3.org/2000/svg" p-id="1642" xmlns:xlink="http://www.w3.org/1999/xlink" width="200" height="200"><defs><style type="text/css"></style></defs><path d="M914.6 815.5L543.3 172.4c-13.9-24.1-48.6-24.1-62.5 0L109.4 815.5c-13.9 24.1 3.5 54.2 31.3 54.2h742.6c27.8 0 45.2-30.1 31.3-54.2zM512 790.1c-20.1 0-36.3-16.3-36.3-36.3s16.3-36.3 36.3-36.3c20.1 0 36.3 16.3 36.3 36.3s-16.2 36.3-36.3 36.3z m36.3-139c0 20-16.4 36.3-36.3 36.3-20 0-36.3-16.4-36.3-36.3V383.8c0-20 16.4-36.3 36.3-36.3 20 0 36.3 16.4 36.3 36.3v267.3z" fill="#2633D2" p-id="1643"></path></svg>