<?xml version="1.0" standalone="no"?>
<!DOCTYPE svg PUBLIC "-//W3C//DTD SVG 20010904//EN"
 "http://www.w3.org/TR/2001/REC-SVG-20010904/DTD/svg10.dtd">
<svg version="1.0" xmlns="http://www.w3.org/2000/svg"
 width="500.000000pt" height="500.000000pt" viewBox="0 0 500.000000 500.000000"
 preserveAspectRatio="xMidYMid meet">

<g transform="translate(0.000000,500.000000) scale(0.100000,-0.100000)"
fill="#000000" stroke="none">
<path d="M2185 4410 c-232 -33 -560 -158 -757 -290 -253 -170 -482 -414 -614
-656 -59 -108 -140 -314 -164 -416 -64 -279 -48 -635 41 -907 146 -446 517
-852 984 -1076 417 -200 1015 -228 1493 -69 620 206 1089 721 1223 1344 31
143 34 463 5 615 -101 543 -461 1009 -981 1268 -197 98 -352 150 -530 178 -88
13 -619 21 -700 9z m126 -760 c31 -17 59 -85 70 -169 9 -80 79 -333 105 -382
15 -29 33 -39 70 -39 22 0 24 -4 24 -46 0 -25 7 -77 16 -116 l16 -71 82 7 c44
3 100 6 122 6 l41 0 67 164 c36 90 66 168 66 174 0 24 -141 221 -173 240 -53
33 -113 43 -184 30 -35 -6 -66 -8 -70 -4 -13 13 65 73 112 86 68 19 175 8 285
-29 119 -41 272 -112 311 -146 25 -20 41 -25 87 -25 59 0 126 -24 150 -53 17
-20 13 -33 -50 -169 l-50 -106 -38 13 c-56 20 -120 54 -120 65 0 15 -59 41
-87 38 -21 -3 -32 -20 -83 -133 -31 -71 -56 -131 -55 -133 1 -2 96 -7 211 -13
114 -5 210 -12 212 -14 12 -11 14 -502 3 -624 -14 -153 -23 -181 -78 -234
l-40 -38 -834 4 c-646 2 -843 6 -873 16 -49 16 -92 60 -107 109 -14 46 -24
512 -14 656 5 83 10 106 23 112 10 4 113 10 230 12 123 2 212 8 212 13 0 5
-16 41 -35 79 -35 69 -56 90 -93 90 -34 0 -140 60 -176 100 -63 70 -90 240
-46 291 20 24 20 24 36 4 8 -11 30 -45 47 -75 39 -66 78 -90 157 -97 72 -7 88
4 134 90 l30 55 -37 80 c-41 91 -44 102 -22 102 61 0 186 -108 211 -182 22
-66 16 -159 -14 -216 -12 -23 -22 -56 -22 -71 0 -16 24 -76 53 -132 57 -114
70 -126 152 -131 45 -3 50 -1 53 20 2 14 -9 37 -33 64 -45 54 -44 87 3 108 32
13 33 17 28 52 -8 50 -100 332 -131 403 -57 129 -35 208 46 165z"/>
<path d="M2520 2920 c0 -28 31 -98 37 -83 6 15 -15 91 -27 98 -6 3 -10 -3 -10
-15z"/>
<path d="M2426 2922 c-7 -12 31 -92 45 -92 11 0 8 25 -11 75 -9 25 -24 32 -34
17z"/>
<path d="M3050 530 c0 -211 0 -211 25 -235 23 -24 49 -31 77 -20 19 7 11 65
-8 65 -11 0 -14 36 -14 200 l0 200 -40 0 -40 0 0 -210z"/>
<path d="M1990 675 l0 -35 60 0 60 0 0 -180 0 -180 40 0 40 0 0 180 0 180 60
0 60 0 0 35 0 35 -160 0 -160 0 0 -35z"/>
<path d="M2416 600 c-116 -36 -144 -211 -48 -292 47 -39 103 -45 159 -16 58
29 83 74 83 146 0 63 -26 120 -67 144 -37 21 -91 29 -127 18z m93 -86 c33 -42
26 -141 -13 -166 -21 -15 -63 -8 -82 13 -14 16 -19 36 -19 79 0 43 5 63 19 79
27 30 70 27 95 -5z"/>
<path d="M2776 600 c-116 -36 -144 -211 -48 -292 47 -39 103 -45 159 -16 58
29 83 74 83 146 0 63 -26 120 -67 144 -37 21 -91 29 -127 18z m93 -86 c33 -42
26 -141 -13 -166 -21 -15 -63 -8 -82 13 -14 16 -19 36 -19 79 0 43 5 63 19 79
27 30 70 27 95 -5z"/>
<path d="M3272 595 c-21 -9 -38 -27 -48 -50 -22 -52 -4 -82 76 -125 73 -40 85
-67 38 -84 -21 -7 -37 -6 -64 8 -34 16 -38 16 -55 0 -25 -23 -24 -31 9 -48 49
-25 105 -29 151 -10 48 19 61 38 61 89 0 43 -25 70 -90 95 -53 21 -69 42 -51
64 17 20 44 20 79 2 25 -13 28 -12 45 10 17 23 17 24 -12 38 -45 24 -102 28
-139 11z"/>
<path d="M1560 570 c0 -30 0 -30 59 -30 33 0 62 -3 64 -7 3 -5 -26 -51 -64
-103 -43 -61 -68 -105 -69 -122 l0 -28 125 0 125 0 0 30 0 30 -75 0 c-41 0
-75 3 -75 6 0 4 32 51 70 105 43 60 70 108 70 123 l0 26 -115 0 -115 0 0 -30z"/>
<path d="M1830 450 l0 -30 75 0 75 0 0 30 0 30 -75 0 -75 0 0 -30z"/>
</g>
</svg>
