<?xml version="1.0" encoding="UTF-8" standalone="no"?>
<!DOCTYPE svg PUBLIC "-//W3C//DTD SVG 1.1//EN" "http://www.w3.org/Graphics/SVG/1.1/DTD/svg11.dtd">
<svg version="1.1" xmlns="http://www.w3.org/2000/svg" xmlns:xlink="http://www.w3.org/1999/xlink" preserveAspectRatio="xMidYMid meet" viewBox="0.23625884960995336 0.23113389930479045 255.07262798111077 255.0726279811108" width="256" height="256"><defs><path d="M126.77 1.23C57.48 1.23 1.24 57.49 1.24 126.77C1.24 196.05 57.48 252.3 126.77 252.3C196.05 252.3 252.31 196.05 252.31 126.77C252.31 57.49 196.05 1.23 126.77 1.23Z" id="b175vQ806H"></path><path d="M126.77 42.14C173.48 42.14 211.39 80.06 211.39 126.77C211.39 173.46 173.48 211.38 126.77 211.38C80.07 211.38 42.15 173.46 42.15 126.77C42.15 80.06 80.07 42.14 126.77 42.14Z" id="e1jF8KkKXU"></path><path d="M143.12 221.92C97.49 221.92 60.45 184.88 60.45 139.27C60.45 93.64 97.49 56.6 143.12 56.6C188.74 56.6 225.77 93.64 225.77 139.27C225.77 184.88 188.74 221.92 143.12 221.92Z" id="c3UHnC9QN"></path><path d="M199.29 134.93C184.79 149.43 149.44 184.78 134.94 199.29C130.43 203.79 123.12 203.79 118.6 199.29C104.09 184.78 68.74 149.43 54.24 134.93C49.73 130.42 49.73 123.11 54.24 118.59C68.74 104.09 104.09 68.74 118.6 54.24C123.12 49.73 130.43 49.73 134.94 54.24C149.44 68.74 184.79 104.09 199.29 118.59C203.8 123.11 203.8 130.42 199.29 134.93Z" id="f1QUitZ9f3"></path><path d="M133.4 84.27L133.48 84.29L133.56 84.3L133.63 84.33L133.7 84.35L133.77 84.39L133.84 84.43L133.9 84.46L133.98 84.5L134.04 84.55L134.1 84.6L134.15 84.65L134.21 84.71L134.26 84.77L134.32 84.83L134.37 84.89L134.42 84.95L134.47 85.03L134.52 85.1L134.57 85.18L134.62 85.26L134.65 85.34L134.7 85.42L134.74 85.51L134.79 85.6L134.82 85.69L134.86 85.78L134.9 85.88L134.94 85.98L134.98 86.06L135.02 86.17L135.06 86.27L135.1 86.37L135.13 86.48L135.17 86.58L135.19 86.69L135.23 86.8L135.27 86.91L137.11 93.81L137.68 93.98L138.96 94.44L140.22 94.94L141.44 95.48L142.64 96.07L142.74 96.13L148.93 92.54L149.05 92.49L149.14 92.44L149.24 92.39L149.34 92.34L149.44 92.29L149.54 92.24L149.64 92.19L149.74 92.16L149.83 92.11L149.93 92.07L150.02 92.03L150.12 92L150.22 91.96L150.3 91.92L150.39 91.9L150.49 91.87L150.57 91.85L150.66 91.83L150.74 91.8L150.83 91.79L150.92 91.76L151 91.75L151.09 91.75L151.16 91.74L151.25 91.74L151.32 91.74L151.41 91.74L151.48 91.75L151.56 91.76L151.63 91.78L151.71 91.8L151.78 91.83L151.85 91.85L151.93 91.89L151.99 91.91L152.06 91.96L152.12 92L152.2 92.06L152.26 92.11L152.32 92.17L161.33 101.18L161.39 101.24L161.46 101.32L161.51 101.38L161.55 101.45L161.59 101.51L161.63 101.59L161.67 101.66L161.69 101.74L161.71 101.81L161.74 101.88L161.76 101.96L161.78 102.04L161.79 102.12L161.79 102.2L161.79 102.28L161.79 102.36L161.79 102.45L161.79 102.54L161.78 102.62L161.76 102.71L161.74 102.8L161.73 102.88L161.7 102.98L161.68 103.07L161.65 103.15L161.62 103.25L161.59 103.34L161.55 103.44L161.52 103.52L161.47 103.62L161.43 103.71L161.38 103.8L161.35 103.9L161.3 103.99L161.25 104.09L161.19 104.19L161.14 104.29L161.07 104.37L161.03 104.47L160.96 104.57L157.38 110.75L157.45 110.88L158.05 112.09L158.6 113.32L159.09 114.57L159.55 115.85L159.73 116.43L166.63 118.26L166.74 118.28L166.84 118.31L166.95 118.35L167.06 118.37L167.16 118.4L167.26 118.43L167.37 118.47L167.46 118.49L167.56 118.53L167.66 118.57L167.75 118.6L167.85 118.65L167.93 118.69L168.02 118.73L168.1 118.78L168.19 118.81L168.28 118.86L168.35 118.91L168.43 118.96L168.5 119.01L168.57 119.06L168.63 119.12L168.71 119.17L168.77 119.23L168.83 119.28L168.88 119.34L168.93 119.4L168.98 119.48L169.03 119.54L169.07 119.6L169.11 119.68L169.14 119.75L169.18 119.82L169.2 119.9L169.23 119.97L169.25 120.04L169.26 120.13L169.27 120.22L169.27 120.3L169.27 120.39L169.27 133.15L169.27 133.23L169.27 133.31L169.26 133.39L169.25 133.47L169.23 133.55L169.2 133.63L169.18 133.7L169.14 133.76L169.11 133.83L169.07 133.9L169.03 133.96L168.98 134.03L168.93 134.08L168.88 134.14L168.83 134.2L168.77 134.25L168.71 134.31L168.63 134.36L168.57 134.41L168.5 134.46L168.43 134.51L168.35 134.56L168.28 134.61L168.19 134.65L168.1 134.7L168.02 134.73L167.93 134.78L167.85 134.82L167.75 134.86L167.66 134.89L167.56 134.93L167.46 134.98L167.37 135.02L167.26 135.05L167.16 135.09L167.06 135.12L166.95 135.15L166.84 135.19L166.74 135.23L166.63 135.26L159.73 137.1L159.55 137.68L159.09 138.96L158.6 140.21L158.05 141.43L157.45 142.64L157.38 142.76L160.96 148.93L161.03 149.03L161.07 149.13L161.14 149.23L161.19 149.31L161.25 149.41L161.3 149.51L161.35 149.59L161.38 149.69L161.43 149.79L161.47 149.88L161.52 149.98L161.55 150.07L161.59 150.16L161.62 150.26L161.65 150.35L161.68 150.43L161.7 150.53L161.73 150.62L161.74 150.7L161.76 150.79L161.78 150.87L161.79 150.96L161.79 151.05L161.79 151.13L161.79 151.22L161.79 151.29L161.79 151.38L161.78 151.45L161.76 151.54L161.74 151.61L161.71 151.69L161.69 151.76L161.67 151.84L161.63 151.91L161.59 151.98L161.55 152.06L161.51 152.12L161.46 152.18L161.39 152.25L161.33 152.32L152.32 161.33L152.26 161.39L152.2 161.45L152.12 161.5L152.06 161.54L151.99 161.59L151.93 161.62L151.85 161.65L151.78 161.67L151.71 161.7L151.63 161.72L151.56 161.73L151.48 161.75L151.41 161.76L151.32 161.76L151.25 161.76L151.16 161.76L151.09 161.76L151 161.75L150.92 161.73L150.83 161.72L150.74 161.7L150.66 161.67L150.57 161.66L150.49 161.62L150.39 161.6L150.3 161.57L150.22 161.54L150.12 161.5L150.02 161.46L149.93 161.43L149.83 161.39L149.74 161.34L149.64 161.3L149.54 161.25L149.44 161.2L149.34 161.16L149.24 161.11L149.14 161.06L149.05 161.01L148.93 160.96L142.77 157.38L142.64 157.45L141.44 158.04L140.22 158.59L138.96 159.09L137.68 159.54L137.11 159.72L135.27 166.62L135.23 166.72L135.19 166.83L135.17 166.94L135.13 167.05L135.1 167.15L135.06 167.25L135.02 167.36L134.98 167.46L134.94 167.56L134.9 167.66L134.86 167.74L134.82 167.84L134.79 167.93L134.74 168.01L134.7 168.1L134.65 168.19L134.62 168.27L134.57 168.35L134.52 168.42L134.47 168.49L134.42 168.57L134.37 168.63L134.32 168.7L134.26 168.76L134.21 168.81L134.15 168.88L134.1 168.92L134.04 168.97L133.98 169.02L133.9 169.06L133.84 169.11L133.77 169.13L133.7 169.17L133.63 169.2L133.56 169.22L133.48 169.24L133.4 169.26L133.31 169.27L133.24 169.27L133.15 169.27L120.39 169.27L120.31 169.27L120.22 169.27L120.14 169.26L120.06 169.24L119.98 169.22L119.9 169.2L119.83 169.17L119.75 169.13L119.68 169.11L119.61 169.06L119.55 169.02L119.48 168.97L119.42 168.92L119.35 168.88L119.3 168.81L119.24 168.76L119.18 168.7L119.13 168.63L119.07 168.57L119.02 168.49L118.97 168.42L118.92 168.35L118.87 168.27L118.82 168.19L118.78 168.1L118.73 168.01L118.7 167.93L118.66 167.84L118.61 167.74L118.57 167.66L118.54 167.56L118.51 167.46L118.47 167.36L118.44 167.25L118.41 167.15L118.38 167.05L118.35 166.94L118.31 166.83L118.29 166.72L118.26 166.62L116.43 159.72L115.85 159.54L114.57 159.09L113.33 158.59L112.1 158.04L110.89 157.45L110.75 157.36L104.6 160.93L104.5 161L104.41 161.04L104.31 161.11L104.22 161.16L104.12 161.2L104.03 161.25L103.93 161.3L103.83 161.35L103.75 161.4L103.65 161.44L103.55 161.48L103.47 161.53L103.37 161.55L103.28 161.59L103.18 161.62L103.1 161.65L103.01 161.67L102.91 161.7L102.83 161.71L102.74 161.72L102.65 161.75L102.57 161.75L102.48 161.76L102.39 161.76L102.32 161.76L102.23 161.76L102.15 161.75L102.07 161.75L101.99 161.72L101.91 161.71L101.84 161.69L101.77 161.66L101.69 161.64L101.62 161.6L101.54 161.56L101.48 161.51L101.41 161.48L101.35 161.43L101.29 161.37L101.21 161.3L92.2 152.29L92.14 152.23L92.09 152.16L92.04 152.09L91.99 152.03L91.95 151.96L91.92 151.9L91.88 151.82L91.85 151.75L91.83 151.68L91.81 151.6L91.79 151.53L91.78 151.45L91.77 151.38L91.77 151.29L91.77 151.22L91.77 151.13L91.78 151.05L91.78 150.97L91.79 150.89L91.82 150.8L91.83 150.71L91.85 150.63L91.88 150.54L91.9 150.46L91.93 150.36L91.97 150.27L91.99 150.17L92.03 150.09L92.06 149.99L92.1 149.9L92.15 149.8L92.19 149.71L92.24 149.61L92.27 149.51L92.32 149.41L92.37 149.31L92.42 149.21L92.47 149.11L92.52 149L92.58 148.9L96.14 142.75L96.08 142.64L95.49 141.43L94.95 140.21L94.44 138.96L93.98 137.68L93.81 137.1L86.92 135.26L86.81 135.23L86.7 135.19L86.59 135.15L86.49 135.12L86.38 135.09L86.28 135.05L86.18 135.02L86.08 134.98L85.98 134.93L85.88 134.89L85.78 134.86L85.7 134.82L85.6 134.78L85.51 134.73L85.43 134.7L85.34 134.65L85.27 134.61L85.18 134.56L85.11 134.51L85.03 134.46L84.96 134.41L84.9 134.36L84.84 134.31L84.78 134.25L84.71 134.2L84.65 134.14L84.6 134.08L84.55 134.03L84.5 133.96L84.47 133.9L84.43 133.83L84.39 133.76L84.36 133.7L84.33 133.63L84.31 133.55L84.3 133.47L84.28 133.39L84.27 133.31L84.26 133.23L84.26 133.15L84.26 120.39L84.26 120.3L84.27 120.22L84.28 120.13L84.3 120.04L84.31 119.97L84.33 119.9L84.36 119.82L84.39 119.75L84.43 119.68L84.47 119.6L84.5 119.54L84.55 119.48L84.6 119.4L84.65 119.34L84.71 119.28L84.78 119.23L84.84 119.17L84.9 119.12L84.96 119.06L85.03 119.01L85.11 118.96L85.18 118.91L85.27 118.86L85.34 118.81L85.43 118.78L85.51 118.73L85.6 118.69L85.7 118.65L85.78 118.6L85.88 118.57L85.98 118.53L86.08 118.49L86.18 118.47L86.28 118.43L86.38 118.4L86.49 118.37L86.59 118.35L86.7 118.31L86.81 118.28L86.92 118.26L93.81 116.43L93.98 115.85L94.44 114.57L94.95 113.32L95.49 112.09L96.08 110.88L96.15 110.77L92.58 104.59L92.52 104.49L92.47 104.38L92.42 104.29L92.37 104.19L92.32 104.09L92.27 103.99L92.24 103.89L92.19 103.79L92.15 103.69L92.1 103.61L92.06 103.51L92.03 103.41L91.99 103.32L91.97 103.23L91.93 103.14L91.9 103.05L91.88 102.96L91.85 102.87L91.83 102.78L91.82 102.7L91.79 102.61L91.78 102.52L91.78 102.45L91.77 102.36L91.77 102.28L91.77 102.2L91.77 102.13L91.78 102.04L91.79 101.97L91.81 101.9L91.83 101.82L91.85 101.75L91.88 101.67L91.92 101.61L91.95 101.54L91.99 101.47L92.04 101.4L92.09 101.34L92.14 101.27L92.2 101.21L101.21 92.19L101.29 92.13L101.35 92.08L101.41 92.02L101.48 91.99L101.54 91.94L101.62 91.9L101.69 91.86L101.77 91.84L101.84 91.81L101.91 91.79L101.99 91.78L102.07 91.76L102.15 91.75L102.23 91.74L102.32 91.74L102.39 91.74L102.48 91.74L102.57 91.75L102.65 91.76L102.74 91.78L102.83 91.79L102.91 91.81L103.01 91.83L103.1 91.85L103.18 91.89L103.28 91.91L103.37 91.95L103.47 91.99L103.55 92.02L103.65 92.06L103.75 92.1L103.83 92.15L103.93 92.19L104.03 92.24L104.12 92.29L104.22 92.34L104.31 92.39L104.41 92.45L104.5 92.51L104.6 92.56L110.78 96.15L110.89 96.07L112.1 95.48L113.33 94.94L114.57 94.44L115.85 93.98L116.43 93.81L118.26 86.91L118.29 86.8L118.31 86.69L118.35 86.58L118.38 86.48L118.41 86.37L118.44 86.27L118.47 86.17L118.51 86.06L118.54 85.98L118.57 85.88L118.61 85.78L118.66 85.69L118.7 85.6L118.73 85.51L118.78 85.42L118.82 85.34L118.87 85.26L118.92 85.18L118.97 85.1L119.02 85.03L119.07 84.95L119.13 84.89L119.18 84.83L119.24 84.77L119.3 84.71L119.35 84.65L119.42 84.6L119.48 84.55L119.55 84.5L119.61 84.46L119.68 84.43L119.75 84.39L119.83 84.35L119.9 84.33L119.98 84.3L120.06 84.29L120.14 84.27L120.22 84.27L120.31 84.25L120.39 84.25L133.15 84.25L133.24 84.25L133.31 84.27L133.4 84.27ZM124.49 108.3L123.76 108.41L123.02 108.55L122.3 108.71L121.59 108.89L120.89 109.11L120.2 109.36L119.53 109.63L118.87 109.92L118.22 110.24L117.59 110.59L116.97 110.95L116.37 111.34L115.79 111.75L115.21 112.19L114.67 112.65L114.13 113.11L113.62 113.61L113.12 114.12L112.65 114.66L112.19 115.21L111.76 115.77L111.35 116.36L110.95 116.97L110.59 117.58L110.25 118.21L109.93 118.86L109.63 119.53L109.36 120.19L109.12 120.88L108.9 121.58L108.71 122.3L108.55 123.01L108.41 123.75L108.3 124.49L108.23 125.24L108.18 125.99L108.17 126.77L108.18 127.53L108.23 128.28L108.3 129.03L108.41 129.78L108.55 130.51L108.71 131.24L108.9 131.94L109.12 132.64L109.36 133.33L109.63 134.01L109.93 134.66L110.25 135.31L110.59 135.94L110.95 136.56L111.35 137.16L111.76 137.75L112.19 138.32L112.65 138.87L113.12 139.4L113.62 139.92L114.13 140.41L114.67 140.89L115.21 141.35L115.79 141.78L116.37 142.18L116.97 142.58L117.59 142.95L118.22 143.29L118.87 143.61L119.53 143.89L120.2 144.16L120.89 144.41L121.59 144.63L122.3 144.82L123.02 144.98L123.76 145.11L124.49 145.22L125.25 145.3L126 145.35L126.77 145.36L127.54 145.35L128.3 145.3L129.05 145.22L129.79 145.11L130.52 144.98L131.24 144.82L131.94 144.63L132.65 144.41L133.34 144.16L134.01 143.89L134.66 143.61L135.32 143.29L135.95 142.95L136.56 142.58L137.16 142.18L137.76 141.78L138.32 141.35L138.88 140.89L139.41 140.41L139.92 139.92L140.41 139.4L140.89 138.87L141.35 138.32L141.78 137.75L142.19 137.16L142.58 136.56L142.95 135.94L143.3 135.31L143.62 134.66L143.91 134.01L144.17 133.33L144.42 132.64L144.64 131.94L144.82 131.24L144.99 130.51L145.12 129.78L145.23 129.03L145.3 128.28L145.35 127.53L145.36 126.77L145.35 125.99L145.3 125.24L145.23 124.49L145.12 123.75L144.99 123.01L144.82 122.3L144.64 121.58L144.42 120.88L144.17 120.19L143.91 119.53L143.62 118.86L143.3 118.21L142.95 117.58L142.58 116.97L142.19 116.36L141.78 115.77L141.35 115.21L140.89 114.66L140.41 114.12L139.92 113.61L139.41 113.11L138.88 112.65L138.32 112.19L137.76 111.75L137.16 111.34L136.56 110.95L135.95 110.59L135.32 110.24L134.66 109.92L134.01 109.63L133.34 109.36L132.65 109.11L131.94 108.89L131.24 108.71L130.52 108.55L129.79 108.41L129.05 108.3L128.3 108.23L127.54 108.18L126.77 108.16L126 108.18L125.25 108.23L124.49 108.3Z" id="ahPHfyijr"></path></defs><g><g><use xlink:href="#b175vQ806H" opacity="1" fill="#54525f" fill-opacity="1"></use><g><use xlink:href="#b175vQ806H" opacity="1" fill-opacity="0" stroke="#000000" stroke-width="1" stroke-opacity="0"></use></g></g><g><use xlink:href="#e1jF8KkKXU" opacity="1" fill="#6f6e7a" fill-opacity="1"></use><g><use xlink:href="#e1jF8KkKXU" opacity="1" fill-opacity="0" stroke="#000000" stroke-width="1" stroke-opacity="0"></use></g></g><g><g><use xlink:href="#c3UHnC9QN" opacity="1" fill-opacity="0" stroke="#000000" stroke-width="1" stroke-opacity="0"></use></g></g><g><g><use xlink:href="#f1QUitZ9f3" opacity="1" fill-opacity="0" stroke="#000000" stroke-width="1" stroke-opacity="0"></use></g></g><g><use xlink:href="#ahPHfyijr" opacity="1" fill="#ffffff" fill-opacity="1"></use><g><use xlink:href="#ahPHfyijr" opacity="1" fill-opacity="0" stroke="#000000" stroke-width="1" stroke-opacity="0"></use></g></g></g></svg>